<?xml version="1.0" encoding="UTF-8"?>
<svg id="Capa_2" data-name="Capa 2" xmlns="http://www.w3.org/2000/svg" viewBox="0 0 219.23 142.99">
  <defs>
    <style>
      .cls-1 {
        fill: #017392;
      }
    </style>
  </defs>
  <g id="Capa_1-2" data-name="Capa 1">
    <g>
      <path class="cls-1" d="M168.31,13.8h34.96v35.47l15.97,7.97-.03,2.83-1.18-.1L109.48,2.98,1.22,59.84c-2.45-3.03-.77-2.5,1.14-3.51C38.11,37.59,73.6,18.34,109.57,0c1.29-.12,3.05,1.12,4.25,1.69,16.65,7.95,32.99,18.18,49.52,26.57,1.21.62,4.16,2.46,4.97,1.2v-15.68ZM171.65,16.37l-.77.77v14.4l28.26,15.46,1.56-.55v-29.3l-.77-.77h-28.28Z"/>
      <path class="cls-1" d="M132.9,140.74c-.29,0-5.12-.92-5.66-1.09-7.73-2.43-5.1-14.03-3.5-20.07,5.39-20.35,24.89-32.46,23.07-53.5-4.8-55.55-88.41-47.65-78.57,10.32,2.22,13.09,6.85,16.42,14.06,25.69,2.43,3.13,4.51,9.64,5.17,13.58.88,5.18-1.62,12.89,6.42,13.83,2.1.25,9.07.43,10.22-1.07,3.6-4.72-.88-21.42-.07-22.2l6.41-.04c.72,6.11.23,12.31.31,18.44.02,1.76.87,3.36.76,5.13-.66,10.3-22,11.33-29.57,12.5H27.46c.02.12.04.25.05.38.07.11.13.23.2.34h63.18c.33,0,1.65-1.02,2.58-1.17,6.97-1.15,14.2-2.28,18.38-8.61l.52-27.24c3.02-2.13,5.77-1.97,5.8-6.7l-1.94-1.92c-4.12-.65-4.74,3.46-5.56,6.55-.58.38-6.56.26-7.41-.27-1.21-.74-1.32-4.07-3.51-4.74-3.32-1.02-6.26.56-4.02,4.03,1.99,3.1,5.92.07,7.22,5.53.61,2.59.83,15.13.33,17.68-.12.6-.12,1.17-.72,1.53-16.38,4.2-12.3-4.56-14.33-14.99-2.22-11.4-12.38-16.77-16.41-27.84C52.28,31.24,125.04,6.71,142.84,55.8c9.84,27.13-10.13,35.35-18.18,57.21-2.23,6.06-5.61,16.04-3.57,22.28.69,2.1,4.37,6.2,6.55,6.2h64.12v-.75h-58.88Z"/>
    </g>
  </g>
</svg>