<?xml version="1.0" encoding="UTF-8"?>
<svg id="Capa_2" data-name="Capa 2" xmlns="http://www.w3.org/2000/svg" viewBox="0 0 478.5 206.13">
  <defs>
    <style>
      .cls-1 {
        fill: #ffffff;
      }
    </style>
  </defs>
  <g id="Capa_1-2" data-name="Capa 1">
    <g>
      <path class="cls-1" d="M8.25,47.88v-4.5c17.47.63,35.5-.82,52.91-.03,25.99,1.18,48.25,7.65,45.33,38.64-1.59,16.92-18.59,27.29-34.01,29.65-.79-.14-.61,1.56-.47,1.86.45,1,9.17,3.23,11.01,3.99,9.9,4.1,22.01,13.45,25.53,23.97,4.77,14.26.83,33.8-9.89,44.45-20.53,20.38-63.54,11.36-89.97,13.49l-.43-4.51h12.38l1.12-1.12V49l-1.12-1.12h-12.38ZM47.62,47.88l-1.12,1.12v60l1.12,1.12h15c.32,0,5.49-1.8,6.14-2.11,12.52-5.9,11.52-27.82,10.76-39.55-.47-7.24-2.55-16.12-10.12-19.13-.62-.25-5.02-1.46-5.29-1.46h-16.5ZM47.62,113.88l-1.12,1.12v78.75l1.12,1.12h13.5c2.05,0,7.29-1.67,9.36-2.64,5.3-2.49,8.84-7.35,10.3-12.95,1.89-7.26,1.87-41.76-.18-48.88-1.43-4.98-6.34-12.19-11.08-14.42-.65-.31-5.82-2.11-6.14-2.11h-15.75Z"/>
      <path class="cls-1" d="M426.88,190.24c3.92,2.39,8.47-3.02,9.24-2.86,2.03.42.53,2.83-.04,3.7-9.56,14.56-29.44,12.76-32.61-5.18-1.91-1.23-4.1,3.38-5.26,4.62-5.99,6.38-11.35,10.31-20.66,10.28-22.39-.07-27.18-28.92-17.84-44.84,7.03-11.98,29.22-14.19,41.81-15.19l1.12-1.13c-.43-9.66.94-20.4.13-29.92-.32-3.72-1.89-8.47-5.33-10.42-4.71-2.66-18.91-2.81-20.18,3.71s3.64,7.49,5.86,12.1c3.99,8.31,1.24,20.51-9.27,21.27-16.25,1.17-15.97-22.36-7.13-31.91,13.14-14.21,56.45-17.82,58.55,7.49,1.93,23.26-2.16,49.69-.07,72.82.19,2.11.71,3.61,1.67,5.45ZM402.75,144.63c-12.23.42-21.26,6.28-22.49,19.13-.85,8.84-2.3,31.62,12.53,26.03,1.96-.74,9.96-8.87,9.96-10.29v-34.88Z"/>
      <path class="cls-1" d="M470.25,44.88v148.88c1.09,2.24,7.68.54,8.25,1.12v4.5h-37.88c-1.71-1.07-.16-2.78-.33-4.46l7.46-.04V50.13l-7.52-.36-.73-2.26,1.24-1.01c9.88-.31,19.79.45,29.5-1.62Z"/>
      <path class="cls-1" d="M225.38,95.88c2.81-.25,6.4-1.12,8.98-2.25,2.6.51-.34,10.83,2.27,12,5.58-11.52,16.75-14.89,28.41-9.67,9.27,4.15,10.71,14.75,9.12,23.96-3.26,18.9-28,14.58-24.97-6.22.65-4.44,8.39-14.56,2.83-15.99-6.51-1.68-12.23,8.04-14.04,13.04-.37,1.02-2.49,8.3-2.49,8.76v75.38h8.25s0,4.5,0,4.5h-37.88c-.2,0-1.83-.82-1.92-1.23-1.1-4.95,6.03-2.92,9.05-3.27l-.38-94.51c-1.21-2.49-6.24-1.22-8.63-1.5v-3c6.92-.46,14.55.62,21.38,0Z"/>
      <path class="cls-1" d="M301.5,179.5c.46,4.15,3.02,10.52,5.97,13.53,12.47,12.74,30.52-6.54,34.56-18.38l2.95,1.1c-5.34,7.66-10.72,19.85-20.09,23.4-23.82,9.04-43.75-16.94-47.35-37.7-3.66-21.13,2.68-56.49,25.04-65.6,27.08-11.03,45.15,23.9,43.91,46.53h-43.12c-.25,0-1.14.99-1.88.75.93,11.58-1.25,25.03,0,36.38ZM301.5,138.63h22.12c1.07-.66,1.03-1.5,1.16-2.59.64-5.46-.95-24.49-2.49-29.84-1.88-6.5-8.41-10.16-14.84-7.71-2.48.95-5.96,7.5-5.96,9.76v30.38Z"/>
      <path class="cls-1" d="M363,20.13h51v51.75l23.29,11.62-.05,4.13-1.72-.14L277.18,4.35,119.25,87.3c-3.57-4.42-1.12-3.65,1.67-5.12C173.07,54.83,224.84,26.76,277.31.01c1.88-.17,4.45,1.63,6.21,2.47,24.29,11.6,48.13,26.52,72.24,38.76,1.77.9,6.07,3.59,7.24,1.76v-22.88ZM367.88,23.88l-1.12,1.12v21l41.22,22.55,2.28-.8V25l-1.12-1.12h-41.25Z"/>
      <path class="cls-1" d="M0,206.13l2.62-.75,124.54.03c7.57-1.17,28.91-2.2,29.57-12.5.11-1.77-.73-3.37-.76-5.13-.07-6.13.42-12.33-.31-18.44l-6.41.04c-.8.78,3.67,17.48.07,22.2-1.14,1.5-8.12,1.31-10.22,1.07-8.04-.94-5.54-8.65-6.42-13.83-.67-3.94-2.74-10.45-5.17-13.58-7.2-9.27-11.84-12.6-14.06-25.69-9.84-57.97,73.77-65.87,78.57-10.32,1.82,21.03-17.67,33.15-23.07,53.5-1.6,6.04-4.22,17.64,3.5,20.07.54.17,5.37,1.09,5.66,1.09h58.88v.75h-64.12c-2.18,0-5.86-4.1-6.55-6.2-2.04-6.24,1.34-16.22,3.57-22.28,8.04-21.86,28.02-30.08,18.18-57.21-17.8-49.08-90.56-24.55-71.02,29.02,4.03,11.06,14.2,16.44,16.41,27.84,2.03,10.42-2.05,19.19,14.33,14.99.6-.35.61-.93.72-1.53.5-2.55.28-15.09-.33-17.68-1.29-5.46-5.22-2.43-7.22-5.53-2.24-3.47.7-5.05,4.02-4.03,2.19.67,2.3,4,3.51,4.74.86.53,6.83.65,7.41.27.82-3.09,1.44-7.2,5.56-6.55l1.94,1.92c-.04,4.72-2.78,4.57-5.8,6.7l-.52,27.24c-4.18,6.33-11.41,7.46-18.38,8.61-.93.15-2.25,1.17-2.58,1.17H0Z"/>
    </g>
  </g>
</svg>